<?xml version="1.0" encoding="UTF-8"?>
<svg width="20px" height="20px" viewBox="0 0 20 20" version="1.1" xmlns="http://www.w3.org/2000/svg" xmlns:xlink="http://www.w3.org/1999/xlink">
    <title>AlterG</title>
    <g id="AlterG" stroke="none" stroke-width="1" fill="none" fill-rule="evenodd">
        <g id="Group-7" fill="#000000" fill-rule="nonzero">
            <g id="noun_treadmill_2978805" transform="translate(0.000000, -0.000000)">
                <g id="Group" transform="translate(0.389111, 0.000000)">
                    <path d="M18.5217062,9.22194193 L18.2882393,8.1324298 C18.2298725,7.8405962 17.9185834,7.66549603 17.6267498,7.74331833 L13.5021681,8.8717416 C13.2297901,8.9495639 13.0546899,9.22194193 13.1325122,9.49431996 L13.2881568,10.1947206 C13.3465236,10.4670986 13.6189016,10.6421988 13.8912796,10.6032877 L15.1558919,10.3892764 L15.6811924,16.1870373 L1.03114541,17.0625381 C0.52530049,17.1014493 0.116733442,17.5294719 0.136189016,18.0353168 C0.15564459,18.5411617 0.564211637,18.9497288 1.08951213,18.9497288 L16.8096157,18.9497288 C17.0819937,18.9497288 17.3349162,18.8329953 17.5100163,18.6384396 C17.6851165,18.4438839 17.7823944,18.1715058 17.7629388,17.9185834 L17.0430826,10.039076 L18.1131391,9.84452029 C18.4049727,9.80560914 18.5995284,9.51377554 18.5217062,9.22194193 Z" id="Path"></path>
                    <path d="M1.43971245,12.1208224 L4.04675933,12.1208224 C4.64988211,12.1208224 5.19463818,11.8484444 5.58374965,11.3815106 L6.07013899,10.7589323 C6.07013899,10.7589323 6.05068342,10.7394767 6.05068342,10.7394767 L5.89503883,10.6032877 C5.70048309,10.4476431 5.56429408,10.3114541 5.46701621,10.2336318 C5.13627145,9.94179816 4.98062687,9.63050898 4.92226014,9.3192198 L4.18294834,10.2725429 C4.12458162,10.2919985 4.08567048,10.3114541 4.04675933,10.3114541 L1.43971245,10.3114541 C0.933867537,10.3114541 0.52530049,10.7200211 0.52530049,11.225866 C0.52530049,11.7122554 0.933867537,12.1208224 1.43971245,12.1208224 Z" id="Path"></path>
                    <path d="M3.91057031,7.64604046 C4.12458162,7.64604046 4.33859293,7.54876259 4.49423752,7.37366243 L5.48647178,6.16741686 C5.58374965,6.03122784 5.73939424,5.95340555 5.89503883,5.9144944 C6.18687243,5.85612768 6.43979489,5.81721653 6.6538062,5.77830539 L6.10905014,7.21801784 L6.01177227,7.49039587 C5.60320522,8.54099685 5.40864949,9.16357521 5.95340555,9.66942012 C6.07013899,9.76669799 6.2841503,9.96125373 6.53707276,10.175265 C7.29584013,10.817299 8.44371898,11.7900777 8.44371898,11.7900777 C8.69664144,12.004089 8.89119718,12.276467 9.02738619,12.5683006 L10.0779872,14.9807917 C10.2336318,15.3115365 10.5643765,15.5255478 10.9145768,15.5255478 C11.0313103,15.5255478 11.1674993,15.5060922 11.2842327,15.4477255 C11.7511665,15.2531698 11.9457222,14.7084137 11.7511665,14.2414799 L10.68111,11.8095332 C10.4476431,11.2647772 10.0779872,10.7783878 9.63050898,10.3892764 L8.46317456,9.39704209 L9.86397586,6.34251702 C10.0001649,6.45925047 10.175265,6.59543948 10.3503652,6.75108407 C10.7394767,7.08182882 11.225866,7.25692899 11.7317109,7.27638456 L13.5021681,7.31529571 C13.9107352,7.33475128 14.2609355,7.00400653 14.2803911,6.57598391 C14.2998467,6.16741686 13.9691019,5.81721653 13.5410793,5.79776096 L11.7900777,5.75884981 C11.6344331,5.75884981 11.4787885,5.70048309 11.362055,5.58374965 C9.92234258,4.35804851 9.72778685,4.31913736 9.53323111,4.28022621 L8.24916325,4.08567048 C8.07406308,4.04675933 7.87950735,4.00784818 5.60320522,4.4358708 C5.09736031,4.53314867 4.63042654,4.8055267 4.29968179,5.19463818 L3.30744753,6.40088374 C3.0350695,6.7316285 3.09343622,7.19856227 3.4047254,7.4709403 C3.57982556,7.58767374 3.75492572,7.64604046 3.91057031,7.64604046 Z" id="Path"></path>
                    <circle id="Oval" transform="translate(9.358540, 2.167942) rotate(-76.484878) translate(-9.358540, -2.167942) " cx="9.35853951" cy="2.16794236" r="1.6731651"></circle>
                </g>
            </g>
            <path d="M7.15480812,2.90242414 C7.15480812,3.44679338 6.53789411,3.88829638 5.77674066,3.88829638 C6.15731739,3.88829638 6.46591608,3.00557375 6.46591608,1.91683528 C6.46591608,1.37246605 7.0828301,0.930963047 7.84370016,0.930963047 C7.46312344,0.930963047 7.15480812,1.81368567 7.15480812,2.90242414" id="Path" stroke="#000000" stroke-linejoin="round" transform="translate(6.810220, 2.409630) rotate(20.000000) translate(-6.810220, -2.409630) "></path>
        </g>
    </g>
</svg>