<?xml version="1.0" encoding="UTF-8"?>
<svg width="20px" height="20px" viewBox="0 0 20 20" version="1.1" xmlns="http://www.w3.org/2000/svg" xmlns:xlink="http://www.w3.org/1999/xlink">
    <title>Aqua Jog</title>
    <g id="Aqua-Jog" stroke="none" stroke-width="1" fill="none" fill-rule="evenodd">
        <g id="Group-8" transform="translate(0.000000, 3.000000)" fill="#000000" fill-rule="nonzero">
            <g id="Group">
                <path d="M0.364612312,11.9633108 C2.6464053,13.5014111 3.6194892,14.24961 6.00953226,12.8983169 C6.66236597,12.5284431 7.46224143,12.5495023 8.09565847,12.9534124 C9.19753411,13.6560755 10.5972016,13.7060909 11.7447439,13.0868791 L12.2772859,12.7991636 C13.0228697,12.3963157 13.7223701,12.5115404 14.4427038,12.9426057 C16.6484551,14.2636956 18.3272894,12.8287664 19.6295818,11.9673748 C20.0040404,11.719376 20.1127904,11.2061063 19.871707,10.8205768 C19.6300818,10.4348163 19.1306232,10.324025 18.7567063,10.5712387 L17.4137472,11.4594622 C15.2298293,12.9036741 14.9147458,9.49920977 10.9952435,11.6169438 C8.91357561,12.7399579 8.40395031,9.6501796 4.85719825,11.6558292 C3.52594748,12.4090158 2.56144692,11.4600164 1.24902949,10.5752566 C0.876695942,10.3239789 0.376153985,10.4307061 0.13194551,10.8143422 C-0.112262965,11.197655 -0.00772123756,11.7123563 0.364612312,11.9633108 Z" id="Path"></path>
                <path d="M6.34054803,6.88582204 L5.40304803,9.92923337 C5.69399631,9.87381466 5.98956281,9.8461053 6.28512931,9.8461053 C8.24159483,9.8461053 8.54621305,10.7328048 9.64258005,10.7328048 L9.67952586,10.7328048 L10.4092057,8.72849446 L16.7777401,10.2571275 C17.2738762,10.3811268 17.7722752,10.0689809 17.8907328,9.57362993 C18.0108067,9.07947968 17.7060037,8.58071121 17.2118534,8.46063732 L10.2337131,6.78422106 L7.78605296,5.69893781 L2.83069581,1.27929495 C2.45200123,0.942164409 1.86548645,0.974491995 1.52835591,1.3578048 C1.18660714,1.73649938 1.21893473,2.31839594 1.60224754,2.6601447 L6.34054803,6.88582204 Z" id="Path" transform="translate(9.604418, 5.889795) rotate(-3.000000) translate(-9.604418, -5.889795) "></path>
                <circle id="Oval" cx="10.2997999" cy="3.81654865" r="2.07820197"></circle>
            </g>
            <path d="M7.15480812,2.90242414 C7.15480812,3.44679338 6.53789411,3.88829638 5.77674066,3.88829638 C6.15731739,3.88829638 6.46591608,3.00557375 6.46591608,1.91683528 C6.46591608,1.37246605 7.0828301,0.930963047 7.84370016,0.930963047 C7.46312344,0.930963047 7.15480812,1.81368567 7.15480812,2.90242414" id="Path" stroke="#000000" stroke-linejoin="round" transform="translate(6.810220, 2.409630) rotate(52.000000) translate(-6.810220, -2.409630) "></path>
        </g>
    </g>
</svg>