<?xml version="1.0" encoding="UTF-8"?>
<svg width="20px" height="20px" viewBox="0 0 20 20" version="1.1" xmlns="http://www.w3.org/2000/svg" xmlns:xlink="http://www.w3.org/1999/xlink">
    <title>bike</title>
    <g id="bike" stroke="none" stroke-width="1" fill="none" fill-rule="evenodd">
        <g id="Group-5" fill="#000000" fill-rule="nonzero">
            <path d="M10.7840718,2.63812776 C10.7840718,3.182497 10.1671578,3.624 9.40600434,3.624 C9.78658106,3.624 10.0951798,2.74127737 10.0951798,1.6525389 C10.0951798,1.10816967 10.7120938,0.666666667 11.4729638,0.666666667 C11.0923871,0.666666667 10.7840718,1.54938929 10.7840718,2.63812776" id="Path" stroke="#000000" stroke-linejoin="round" transform="translate(10.439484, 2.145333) rotate(47.000000) translate(-10.439484, -2.145333) "></path>
            <g id="noun_biker_3676121-copy" transform="translate(0.000000, 1.147972)">
                <path d="M8.06903679,7.98493288 C8.68059094,8.51540045 9.59792216,8.71083587 10.3484659,10.1905612 C10.9044242,11.3352544 10.96002,13.3454473 11.1824034,14.7414145 C11.3491908,16.3328172 9.90369923,16.5840914 9.54232633,15.020608 C8.2636222,9.74385166 9.73691174,11.9215606 5.40043688,8.85043259 C4.37191399,8.12452961 4.26072233,7.09151381 5.17805355,6.19809475 C6.23437435,5.248837 7.62427014,4.2158212 9.34774092,3.09904738 C9.87590131,2.73609588 10.4318596,2.79193457 10.9878179,3.21072476 L16.5196032,7.48238465 C17.4647323,8.20828764 16.6029969,9.29714213 15.6578678,8.71083587 C14.2957699,7.84533615 12.9058741,7.03567512 11.5715742,6.14225606 C11.2102013,5.89098195 10.9322221,5.8630626 10.5430513,6.11433671 C9.90369923,6.61688494 9.06976176,7.23111054 8.06903679,7.98493288 Z M13.7676095,0 C14.7961324,0 15.6300699,0.837580372 15.6300699,1.87059616 C15.6300699,2.90361196 14.7961324,3.74119233 13.7676095,3.74119233 C12.7390866,3.74119233 11.9051492,2.90361196 11.9051492,1.87059616 C11.9051492,0.837580372 12.7390866,0 13.7676095,0 Z M7.40188681,15.4393982 C6.73473683,18.1754941 3.17660362,19.2643485 1.14735577,17.198317 C-0.881892084,15.1602047 -0.131348358,11.7540445 2.70403905,10.8885448 C5.48383062,10.0230451 8.06903679,12.6474636 7.40188681,15.4393982 Z M5.95639519,15.0485273 C6.37336393,13.3454473 4.84447856,11.8378026 3.1488057,12.2845121 C1.36973909,12.7870603 0.924972441,14.93685 2.17587865,16.1653012 C3.42678486,17.3937524 5.53942646,16.7516074 5.95639519,15.0485273 Z M19.9109489,15.2718821 C19.2437989,18.0638167 15.7690595,19.2085099 13.6564179,17.1703976 C11.5437763,15.104366 12.3499158,11.7261252 15.1297074,10.8327061 C17.8817011,9.93928708 20.5225031,12.4799475 19.9109489,15.2718821 Z M18.4376594,14.9647693 C18.8546281,13.2896086 17.2979448,11.7261252 15.6300699,12.2286734 C13.9065991,12.7312216 13.3784387,14.8530919 14.6571428,16.0815431 C15.935847,17.282075 18.0206906,16.6678494 18.4376594,14.9647693 Z M3.23219945,3.76911167 C3.89934943,2.06603158 6.34556601,1.34012859 7.98564304,1.87059616 C8.48600553,2.01019289 8.54160136,2.261467 8.12463262,2.56857981 C6.90152433,3.48991822 5.70621395,4.43917597 4.45530774,5.33259503 C3.64916818,5.97473998 3.12100779,4.38333728 3.23219945,3.76911167 Z" id="Shape"></path>
            </g>
        </g>
    </g>
</svg>