<?xml version="1.0" encoding="UTF-8"?>
<svg width="20px" height="20px" viewBox="0 0 20 20" version="1.1" xmlns="http://www.w3.org/2000/svg" xmlns:xlink="http://www.w3.org/1999/xlink">
    <title>climb</title>
    <g id="climb" stroke="none" stroke-width="1" fill="none" fill-rule="evenodd">
        <g id="Group-6" transform="translate(2.000000, 0.000000)" fill="#000000" fill-rule="nonzero">
            <g id="Group" transform="translate(2.580553, 0.000000)">
                <path d="M6.9375,17.4166667 L7.47916667,16.3333333 L7.14583333,14.0416667 C7.0625,13.4791667 6.6875,13 6.14583333,12.7916667 L4.41666667,12.125 L4.79166667,7.8125 C5.125,7.72916667 5.5,7.625 5.9375,7.5 C6.375,7.375 6.79166667,7.1875 7.14583333,6.89583333 L8,6.22916667 L8,4.3125 C8,4.29166667 8,4.27083333 8,4.25 C7.85416667,4.27083333 7.70833333,4.3125 7.5625,4.41666667 L6.10416667,5.54166667 C5.91666667,5.6875 5.70833333,5.79166667 5.47916667,5.85416667 C2.25,6.72916667 2.125,6.79166667 2,6.85416667 C1.58333333,7.0625 1.3125,7.29166667 1.27083333,7.95833333 C1.22916667,8.625 1.04166667,11.7083333 1.04166667,11.7083333 C1,12.3958333 1.39583333,13.0416667 2.04166667,13.2916667 L2.35416667,13.4166667 L2.22916667,14.8958333 C2.20833333,15.0833333 2.16666667,15.25 2.0625,15.3958333 L0.291666667,18.1458333 C-6.9388939e-16,18.6041667 0.125,19.2083333 0.583333333,19.5 C0.75,19.6041667 0.9375,19.6666667 1.10416667,19.6666667 C1.4375,19.6666667 1.75,19.5 1.9375,19.2083333 L3.70833333,16.4583333 C3.97916667,16.0416667 4.14583333,15.5625 4.1875,15.0625 L4.25,14.1666667 L5.22916667,14.5625 L5.70833333,17.8541667 C5.72916667,17.9583333 5.75,18.0416667 5.79166667,18.125 L6.9375,17.4166667 Z" id="Path"></path>
                <circle id="Oval" transform="translate(2.561921, 4.225717) rotate(-20.751195) translate(-2.561921, -4.225717) " cx="2.56192083" cy="4.22571667" r="1.87494422"></circle>
                <path d="M13.1666667,0.104166667 L10.8541667,0.104166667 C10.6666667,0.104166667 10.5,0.208333333 10.4375,0.395833333 L8.89583333,4.14583333 C8.875,4.20833333 8.85416667,4.25 8.85416667,4.3125 L8.85416667,7.45833333 C8.85416667,7.58333333 8.89583333,7.6875 8.97916667,7.77083333 L9.89583333,8.72916667 C10.0416667,8.875 10.0625,9.10416667 9.95833333,9.29166667 L8.72916667,11.25 C8.64583333,11.375 8.64583333,11.5416667 8.70833333,11.6875 L9.58333333,13.625 C9.64583333,13.75 9.64583333,13.8958333 9.58333333,14.0208333 L7.64583333,17.8958333 C7.60416667,17.9791667 7.54166667,18.0416667 7.47916667,18.0833333 L5.9375,19.0416667 C5.54166667,19.2916667 5.72916667,19.8958333 6.1875,19.8958333 L13.1458333,19.8958333 C13.3958333,19.8958333 13.6041667,19.6875 13.6041667,19.4375 L13.6041667,0.5625 C13.625,0.3125 13.4166667,0.104166667 13.1666667,0.104166667 Z" id="Path"></path>
            </g>
            <path d="M2.04473413,5.59041525 C2.04473413,6.13478448 1.42782011,6.57628748 0.666666667,6.57628748 C1.04724339,6.57628748 1.35584209,5.69356486 1.35584209,4.60482639 C1.35584209,4.06045715 1.9727561,3.61895415 2.73362617,3.61895415 C2.35304944,3.61895415 2.04473413,4.50167678 2.04473413,5.59041525" id="Path" stroke="#000000" stroke-linejoin="round" transform="translate(1.700146, 5.097621) rotate(20.000000) translate(-1.700146, -5.097621) "></path>
        </g>
    </g>
</svg>