<?xml version="1.0" encoding="UTF-8"?>
<svg width="20px" height="20px" viewBox="0 0 20 20" version="1.1" xmlns="http://www.w3.org/2000/svg" xmlns:xlink="http://www.w3.org/1999/xlink">
    <title>Hike</title>
    <g id="Hike" stroke="none" stroke-width="1" fill="none" fill-rule="evenodd">
        <g id="Group-9" transform="translate(4.000000, 0.000000)" fill="#000000" fill-rule="nonzero">
            <g id="noun_Hiker_3342420" transform="translate(0.000000, 0.625000)">
                <g id="Group" transform="translate(0.000000, 0.129995)">
                    <path d="M8.11602595,0.0738097826 C7.0879661,0.0738097826 6.25462317,0.907249321 6.25462317,1.93531182 C6.25462317,2.96337432 7.0879661,3.7968159 8.11602595,3.7968159 C9.1440909,3.7968159 9.97752779,2.96337432 9.97752779,1.93531182 C9.97752779,0.907249321 9.1440909,0.0738097826 8.11602595,0.0738097826 Z M3.46042459,3.61458549 C2.98421372,3.61561141 2.60565306,3.81251291 2.37508166,4.3127303 L0.697647147,8.20978329 C0.474133899,8.72882201 0.828675611,9.31919837 1.36825129,9.48727582 L2.39755639,9.80773777 C2.93717201,9.97581522 3.50684368,9.67640625 3.67494192,9.13693614 L4.9524267,5.03771943 C5.12052514,4.49825951 4.82143308,3.92830842 4.28182255,3.76023505 C4.06672235,3.69314878 3.86197826,3.64619633 3.67036916,3.62587908 C3.59849654,3.61831793 3.52844694,3.61446603 3.46042459,3.61458549 L3.46042459,3.61458549 Z M6.98846291,4.12798166 C6.35922697,4.14536617 5.70767038,4.51180842 5.50920245,5.15125476 L4.28960808,9.08137908 L4.14640068,9.54319973 C4.0842163,9.74400815 4.11180673,10.0571128 4.30565727,10.431053 L5.38175523,12.5065965 L5.6863661,13.0940217 L8.14706332,17.8403804 C8.40699355,18.3601019 9.04185326,18.5665557 9.55773363,18.2991033 C10.0736038,18.0316508 10.2709064,17.3937432 9.99601284,16.8818071 L6.69241447,10.5098641 L7.1854716,9.06951766 L7.5464089,8.01520924 C8.13608499,9.376875 9.92279022,9.97980978 11.0831042,10.3722962 L10.4532654,18.0550883 C10.4389502,18.2301155 10.5692262,18.3836209 10.744253,18.3979484 C10.9192749,18.4122147 11.0727683,18.2819837 11.0870941,18.1069565 L11.7173262,10.4187024 C11.9182899,10.3456997 12.0856806,10.1856318 12.1595955,9.96699049 C12.2739624,9.62861413 12.1256193,9.26580163 11.825606,9.09792799 L11.927465,7.85594633 C11.9418353,7.68088655 11.834293,7.5137731 11.6185755,7.51300679 C11.4028626,7.51219158 11.3086447,7.66848302 11.2936365,7.80389878 L11.2061729,8.87084918 C10.1676326,8.49934239 9.45248743,8.16004688 9.11332235,7.75758832 C8.9095445,7.51580095 8.72019192,7.1879837 8.59517058,6.69909986 C8.45962418,6.18686617 8.42984694,5.6469803 8.32714096,5.04462432 C8.22444029,4.44227038 7.61770394,4.11059307 6.98846291,4.12798166 L6.98846291,4.12798166 Z M3.79470306,10.675822 L2.63776141,14.4388247 L0.363074592,16.6114402 C-0.0627719429,17.0066984 -0.082845856,17.6739742 0.318324253,18.0941168 C0.719633764,18.5142595 1.38713478,18.5247351 1.80147493,18.1174524 L4.27666712,15.7532813 C4.40809912,15.6277378 4.50437446,15.4700136 4.55597874,15.2957405 L5.14962982,13.2894701 L3.79470306,10.675822 Z" id="Shape"></path>
                </g>
            </g>
            <path d="M4.16569437,3.64527786 C4.52248505,3.64527786 4.81179633,2.81772539 4.81179633,1.79703308 C4.81179633,1.28668692 5.39015322,0.872777857 6.1034689,0.872777857 C5.74667823,0.872777857 5.45763261,1.70033032 5.45763261,2.72102263 C5.45763261,3.23136879 4.87927572,3.64527786 4.16569437,3.64527786 Z" id="Path" stroke="#000000" stroke-linejoin="round" transform="translate(5.134582, 2.259028) rotate(26.000000) translate(-5.134582, -2.259028) "></path>
        </g>
    </g>
</svg>