<?xml version="1.0" encoding="UTF-8"?>
<svg width="20px" height="20px" viewBox="0 0 20 20" version="1.1" xmlns="http://www.w3.org/2000/svg" xmlns:xlink="http://www.w3.org/1999/xlink">
    <title>Lift</title>
    <g id="Lift" stroke="none" stroke-width="1" fill="none" fill-rule="evenodd">
        <g id="noun_weight-lift_2703228" transform="translate(1.000000, 0.000000)" fill="#000000" fill-rule="nonzero">
            <path d="M10.827619,4.78714286 C10.827619,3.80619048 10.0295238,3.01 9.05,3.01 C8.06952381,3.01 7.27238095,3.80714286 7.27238095,4.78714286 C7.27238095,5.76714286 8.07047619,6.56380974 9.05,6.56380974 C10.03,6.56428571 10.827619,5.76714286 10.827619,4.78714286 Z" id="Path"></path>
            <path d="M17.0890476,0.417142857 L17.0190476,0.417142857 C16.4647619,0.417142857 16.0138095,0.867619048 16.0138095,1.42142857 L16.0138095,1.9852381 L12.9538095,1.9852381 C12.9257143,1.9852381 12.9028571,1.99619048 12.8766667,2.00095238 C12.8666667,1.99904762 12.8571429,1.99714286 12.847619,1.9947619 C12.7166667,1.90714286 12.5628571,1.86047619 12.4019048,1.86047619 C12.4009524,1.86047619 12.4,1.86047619 12.3990476,1.86047619 C12.2419048,1.86047619 12.0947619,1.90714286 11.9714286,1.9852381 L6.25380952,1.9852381 C6.22095238,1.9852381 6.19142857,1.99714286 6.16047619,2.00380952 C6.02619048,1.91190476 5.86761905,1.86047619 5.70047619,1.86047619 C5.69952381,1.86047619 5.69857143,1.86047619 5.69761905,1.86047619 C5.52809524,1.86095238 5.37,1.91380952 5.24,2.00380952 C5.20904762,1.99714286 5.17952381,1.9852381 5.14666667,1.9852381 L2.08,1.9852381 L2.08,1.42190476 C2.08,0.868095238 1.62904762,0.417619048 1.0747619,0.417619048 L1.00428571,0.417619048 C0.45047619,0.417619048 0,0.868095238 0,1.42190476 L0,3.50047619 C0,4.0547619 0.45047619,4.5052381 1.0047619,4.5052381 L1.0747619,4.5052381 C1.62904762,4.5052381 2.08,4.0547619 2.08,3.50047619 L2.08,2.93761905 L4.88809524,2.93761905 L4.89809524,5.87857143 C4.89809524,5.87904762 4.89809524,5.87904762 4.89809524,5.87904762 C4.89952381,6.42238095 5.17190476,6.9247619 5.62619048,7.22380952 L7.19714286,8.25904762 C7.20428571,8.26333333 7.20714286,8.26952381 7.21380952,8.2747619 C7.22571429,8.2847619 7.23761905,8.29571429 7.24714286,8.30857143 C7.25714286,8.32047619 7.2652381,8.33238095 7.27238095,8.34571429 C7.28,8.35857143 7.2847619,8.37190476 7.28904762,8.38666667 C7.2947619,8.40238095 7.29809524,8.41761905 7.29904762,8.43428571 C7.3,8.44285714 7.30380952,8.44904762 7.30380952,8.45761905 L7.30380952,12.9990476 C7.30380952,13.0085714 7.29952381,13.0157143 7.29857143,13.0247619 C7.29666667,13.0409524 7.29333333,13.0557143 7.28857143,13.0728571 C7.28285714,13.087619 7.27714286,13.102381 7.26904762,13.1157143 C7.26380952,13.1242857 7.26285714,13.132381 7.25809524,13.1404762 L3.71238095,18.0057143 C3.56761905,18.2038095 3.50857143,18.4466667 3.54666667,18.6890476 C3.5847619,18.9319048 3.7152381,19.1447619 3.91333333,19.2890476 C4.11190476,19.4347619 4.35380952,19.492381 4.59714286,19.4552381 C4.83904762,19.4171429 5.05190476,19.2866667 5.19666667,19.0890476 C5.19714286,19.0880952 5.19714286,19.0880952 5.19714286,19.0880952 L9.16142857,13.6490476 C9.16952381,13.6390476 9.18047619,13.632381 9.19095238,13.6228571 C9.20142857,13.6119048 9.21238095,13.5995238 9.2247619,13.5914286 C9.23714286,13.5833333 9.25238095,13.5790476 9.26619048,13.5728571 C9.28,13.5671429 9.29380952,13.5614286 9.30857143,13.5585714 C9.32333333,13.5552381 9.33904762,13.5561905 9.3552381,13.5561905 C9.37,13.5561905 9.38428571,13.5552381 9.39904762,13.5580952 C9.4147619,13.5609524 9.42904762,13.5680952 9.4447619,13.5747619 C9.45571429,13.5795238 9.46904762,13.5809524 9.48,13.5866667 L11.352381,14.7438095 C11.36,14.7490476 11.3642857,14.7557143 11.3719048,14.762381 C11.3847619,14.772381 11.3961905,14.7819048 11.4071429,14.7942857 C11.4166667,14.8057143 11.4247619,14.8190476 11.432381,14.8314286 C11.44,14.8447619 11.4452381,14.8580952 11.45,14.872381 C11.4557143,14.8880952 11.4585714,14.9033333 11.46,14.9204762 C11.4609524,14.93 11.4657143,14.9371429 11.4657143,14.9466667 L11.4657143,18.6647619 C11.4657143,19.1709524 11.8766667,19.5842857 12.3847619,19.5842857 C12.8909524,19.5842857 13.3028571,19.172381 13.3028571,18.6647619 L13.3028571,14.622381 C13.3028571,14.1014286 13.0385714,13.6266667 12.5961905,13.3528571 C12.5961905,13.3519048 12.5961905,13.3519048 12.5952381,13.3519048 L10.9119048,12.3114286 C10.9033333,12.3061905 10.8990476,12.2990476 10.892381,12.2928571 C10.8795238,12.2828571 10.8671429,12.2728571 10.8571429,12.2609524 C10.8471429,12.2490476 10.8395238,12.2361905 10.8319048,12.2238095 C10.8233333,12.2104762 10.8180952,12.1966667 10.8133333,12.1828571 C10.8085714,12.1671429 10.8047619,12.1519048 10.8033333,12.1342857 C10.802381,12.1247619 10.7985714,12.1180952 10.7985714,12.1085714 L10.7985714,8.45952381 C10.7985714,8.45095238 10.802381,8.4447619 10.8033333,8.43619048 C10.8042857,8.42047619 10.8080952,8.4052381 10.8133333,8.38857143 C10.8171429,8.37380952 10.8228571,8.36047619 10.83,8.34761905 C10.8366667,8.33428571 10.8447619,8.32238095 10.8552381,8.31047619 C10.8647619,8.29761905 10.8766667,8.28666667 10.8885714,8.27666667 C10.8952381,8.27142857 10.8985714,8.2652381 10.9052381,8.26095238 L12.4761905,7.22571429 C12.93,6.92666667 13.202381,6.42333333 13.2042857,5.88047619 L13.2142857,2.93952381 L16.0157143,2.93952381 L16.0157143,3.50285714 C16.0157143,4.05714286 16.4666667,4.50761905 17.0209524,4.50761905 L17.0904762,4.50761905 C17.6447619,4.50761905 18.0947619,4.05714286 18.0947619,3.50285714 L18.0947619,1.42190476 C18.0942857,0.868095238 17.6433333,0.417142857 17.0890476,0.417142857 Z M11.5709524,5.76238095 C11.57,5.77857143 11.5661905,5.79380952 11.5609524,5.81047619 C11.5561905,5.8247619 11.5514286,5.83857143 11.5452381,5.85095238 C11.5366667,5.86428571 11.5295238,5.87666667 11.5190476,5.88857143 C11.5085714,5.90047619 11.497619,5.91190476 11.4857143,5.92190476 C11.4790476,5.92666667 11.4757143,5.93333333 11.4690476,5.93809524 L10.3538095,6.67238095 C9.95761905,6.93333333 9.50380952,7.06285714 9.05,7.06285714 C8.59714286,7.06285714 8.14333333,6.93333333 7.74714286,6.67238095 L6.63190476,5.93809524 C6.6247619,5.93333333 6.62190476,5.92666667 6.6152381,5.92190476 C6.60333333,5.91190476 6.59190476,5.90047619 6.58190476,5.88809524 C6.57190476,5.87666667 6.56428571,5.86428571 6.55666667,5.85095238 C6.54904762,5.83857143 6.5447619,5.82428571 6.54,5.81047619 C6.53428571,5.7947619 6.53095238,5.77952381 6.53,5.76238095 C6.52904762,5.75428571 6.5252381,5.74809524 6.5252381,5.74047619 L6.51428571,2.93761905 L11.5847619,2.93761905 L11.5747619,5.74 C11.5757143,5.74761905 11.5719048,5.75380952 11.5709524,5.76238095 Z" id="Shape"></path>
        </g>
    </g>
</svg>