<?xml version="1.0" encoding="UTF-8"?>
<svg width="20px" height="20px" viewBox="0 0 20 20" version="1.1" xmlns="http://www.w3.org/2000/svg" xmlns:xlink="http://www.w3.org/1999/xlink">
    <title>run</title>
    <g id="run" stroke="none" stroke-width="1" fill="none" fill-rule="evenodd">
        <path d="M18.62182,10.5549264 C18.62182,10.5549264 15.6876304,10.396376 14.8873969,10.396376 C14.0871634,10.396376 13.5314456,8.62967157 13.3091585,8.49377123 C13.0646427,8.38052095 12.1310369,10.1698754 11.5753192,11.0305776 C12.0643508,11.1438279 14.3539079,12.6160815 14.3316792,13.0917327 C14.3094504,13.5673839 14.1760782,18.8221971 14.1760782,18.8221971 C14.1760782,18.8221971 14.3761366,20 12.8868131,20 C11.3974895,20 11.6420053,18.8221971 11.6420053,18.8221971 C11.6420053,18.8221971 11.664234,14.7678369 11.6420053,14.5186863 C11.6197766,14.2695357 9.90816602,13.3861835 9.44136313,13.3861835 C8.99678894,13.3861835 7.37409317,16.2627407 6.66277447,16.398641 C5.95145578,16.5345413 0.816623953,14.3601359 0.816623953,14.3601359 C0.816623953,14.3601359 -0.450412472,13.6579841 0.171991385,12.4575311 C0.772166534,11.2797282 1.97251683,11.98188 1.97251683,11.98188 C1.97251683,11.98188 5.30682321,13.4088335 5.61802514,13.3408834 C5.92922707,13.2502831 6.46271609,11.8686297 7.10734866,11.0985277 C7.1962635,10.7587769 8.84118798,8.35787089 8.84118798,8.35787089 C8.84118798,8.35787089 9.73033635,6.79501699 9.64142151,6.56851642 C9.55250667,6.3193658 8.79673056,6.81766704 8.79673056,6.81766704 C8.79673056,6.81766704 7.72975252,7.99546999 6.26265771,9.10532276 C4.7955629,10.2151755 3.63967002,8.60702152 4.50658968,7.81426954 C5.37350934,7.02151755 7.77420993,4.19026048 8.99678894,3.96375991 C10.2193679,3.71460929 12.1754944,3.94110985 13.6648179,4.75651189 C15.1541414,5.57191393 15.798774,7.72366931 16.0432898,8.06342016 C16.2878056,8.38052095 18.6440487,8.26727067 18.6440487,8.26727067 C18.6440487,8.26727067 20,8.17667044 20,9.3997735 C20,10.6228766 18.62182,10.5549264 18.62182,10.5549264 Z M14.8207108,4.4394111 C13.6203605,4.4394111 12.6200685,3.44280861 12.6200685,2.21970555 C12.6200685,0.996602492 13.5981317,0 14.8207108,0 C16.0210611,0 17.021353,0.996602492 17.021353,2.21970555 C17.021353,3.44280861 16.0432898,4.4394111 14.8207108,4.4394111 Z" id="Shape" fill="#1A1A1A" fill-rule="nonzero"></path>
    </g>
</svg>