<?xml version="1.0" encoding="UTF-8"?>
<svg width="20px" height="20px" viewBox="0 0 20 20" version="1.1" xmlns="http://www.w3.org/2000/svg" xmlns:xlink="http://www.w3.org/1999/xlink">
    <title>Sleep</title>
    <g id="Sleep" stroke="none" stroke-width="1" fill="none" fill-rule="evenodd">
        <g id="noun_sleep_1760876" transform="translate(0.000000, 2.000000)" fill="#000000" fill-rule="nonzero">
            <path d="M18.5687204,4.84123223 C17.985782,4.42417062 17.2819905,4.24170616 16.57109,4.24170616 L9.81279621,4.24170616 C9.55687204,4.24170616 9.30331754,4.23459716 9.04739336,4.24170616 C9.01895735,4.24170616 8.98815166,4.24407583 8.95971564,4.24881517 C8.43127962,4.30331754 7.96682464,4.71090047 7.83649289,5.22511848 C7.78672986,5.42180095 7.79383886,5.61611374 7.79383886,5.81516588 L7.79383886,8.83886256 L1.8957346,8.83886256 L1.8957346,2.67298578 C1.8957346,2.11374408 1.9028436,1.5521327 1.8957346,0.992890995 C1.8957346,0.985781991 1.8957346,0.976303318 1.8957346,0.969194313 C1.8957346,0.473933649 1.45971564,-0.00236966825 0.947867299,0.0213270142 C0.433649289,0.0450236967 0,0.438388626 0,0.969194313 L0,13.1042654 C0,13.6635071 0,14.2251185 0,14.7843602 L0,14.8080569 C0,15.3033175 0.436018957,15.7796209 0.947867299,15.7559242 C1.46208531,15.7322275 1.8957346,15.3388626 1.8957346,14.8080569 L1.8957346,12.5829384 L18.1042654,12.5829384 L18.1042654,14.8080569 C18.1042654,15.3033175 18.5402844,15.7796209 19.0521327,15.7559242 C19.5663507,15.7322275 20,15.3388626 20,14.8080569 L20,9.42890995 C20,9.40521327 20,9.38388626 19.9976303,9.36018957 C19.9976303,9.36018957 19.9976303,9.36018957 19.9976303,9.36018957 C19.9881517,9.25118483 19.9597156,9.14218009 19.9123223,9.04265403 C19.9668246,9.12085308 20,9.21327014 20,9.31279621 L20,7.57109005 C19.992891,6.47867299 19.4526066,5.47630332 18.5687204,4.84123223 Z" id="Path"></path>
            <path d="M6.89810427,6.28436019 C6.88625592,5.41232227 6.33886256,4.66587678 5.52843602,4.36018957 C4.76066351,4.07109005 3.81279621,4.32464455 3.29383886,4.95971564 C2.74170616,5.63270142 2.63033175,6.58530806 3.08530806,7.3436019 C3.53791469,8.0971564 4.41232227,8.46445498 5.26777251,8.30094787 C6.20379147,8.12322275 6.87440758,7.25829384 6.8957346,6.32227488 C6.8957346,6.31516588 6.8957346,6.3056872 6.8957346,6.2985782 L6.8957346,6.29383886 C6.8957346,6.28909953 6.89810427,6.28672986 6.89810427,6.28436019 Z" id="Path"></path>
        </g>
    </g>
</svg>