<?xml version="1.0" encoding="UTF-8"?>
<svg width="20px" height="20px" viewBox="0 0 20 20" version="1.1" xmlns="http://www.w3.org/2000/svg" xmlns:xlink="http://www.w3.org/1999/xlink">
    <title>swim</title>
    <g id="swim" stroke="none" stroke-width="1" fill="none" fill-rule="evenodd">
        <g id="noun_Swim_3194813" transform="translate(0.000000, 3.000000)" fill="#000000" fill-rule="nonzero">
            <g id="Group">
                <path d="M6.5625,10.75 C6.64583333,10.8125 6.75,10.8125 6.83333333,10.75 C6.91666667,10.6875 7.02083333,10.6041667 7.08333333,10.5625 C7.60416667,10.1875 8.47916667,9.52083333 10,9.52083333 C11.5416667,9.52083333 12.3958333,10.1666667 12.9166667,10.5625 C12.9791667,10.6041667 13.0833333,10.6666667 13.1666667,10.75 C13.25,10.8125 13.3541667,10.8125 13.4375,10.75 C13.5208333,10.6875 13.625,10.6041667 13.6666667,10.5833333 C13.8333333,10.4583333 14.0416667,10.3125 14.3125,10.1458333 L12.0625,6.29166667 L12.2916667,3.20833333 L15.3333333,2.4375 C15.9791667,2.27083333 16.375,1.60416667 16.2291667,0.958333333 C16.0625,0.3125 15.3958333,-0.0833333333 14.75,0.0625 L10.8541667,1.04166667 C10.3541667,1.16666667 9.97916667,1.60416667 9.9375,2.14583333 L9.64583333,6.08333333 L4.54166667,9.66666667 C5.39583333,9.875 5.95833333,10.2916667 6.33333333,10.5625 C6.375,10.6041667 6.47916667,10.6875 6.5625,10.75 Z" id="Path"></path>
                <path d="M18.7291667,11.625 C18.2916667,11.2916667 17.6875,10.8541667 16.5833333,10.8541667 C15.4791667,10.8541667 14.875,11.2916667 14.4375,11.625 C14.0625,11.8958333 13.8333333,12.0833333 13.2708333,12.0833333 C12.7291667,12.0833333 12.5,11.9166667 12.125,11.625 C11.6875,11.2916667 11.0833333,10.8541667 9.97916667,10.8541667 C8.875,10.8541667 8.27083333,11.2916667 7.83333333,11.625 C7.45833333,11.8958333 7.22916667,12.0833333 6.66666667,12.0833333 C6.10416667,12.0833333 5.89583333,11.9166667 5.5,11.625 C5.0625,11.2916667 4.45833333,10.8541667 3.35416667,10.8541667 C2.25,10.8541667 1.64583333,11.2916667 1.20833333,11.625 C0.833333333,11.8958333 0.604166667,12.0833333 0.0416666667,12.0833333 L0.0416666667,13.7291667 C1.14583333,13.7291667 1.75,13.2916667 2.1875,12.9583333 C2.5625,12.6875 2.79166667,12.5 3.35416667,12.5 C3.91666667,12.5 4.125,12.6666667 4.52083333,12.9583333 C4.95833333,13.2916667 5.5625,13.7291667 6.66666667,13.7291667 C7.77083333,13.7291667 8.375,13.2916667 8.8125,12.9583333 C9.1875,12.6875 9.41666667,12.5 9.97916667,12.5 C10.5208333,12.5 10.75,12.6666667 11.125,12.9583333 C11.5625,13.2916667 12.1666667,13.7291667 13.2708333,13.7291667 C14.375,13.7291667 14.9791667,13.2916667 15.4166667,12.9583333 C15.7916667,12.6875 16.0208333,12.5 16.5833333,12.5 C17.125,12.5 17.3541667,12.6666667 17.75,12.9583333 C18.1875,13.2916667 18.7916667,13.7291667 19.8958333,13.7291667 L19.8958333,12.0833333 C19.3541667,12.0625 19.125,11.8958333 18.7291667,11.625 Z" id="Path"></path>
                <circle id="Oval" cx="16.0416667" cy="6.16666667" r="2.58333333"></circle>
            </g>
        </g>
    </g>
</svg>