<?xml version="1.0" encoding="UTF-8"?>
<svg width="20px" height="20px" viewBox="0 0 20 20" version="1.1" xmlns="http://www.w3.org/2000/svg" xmlns:xlink="http://www.w3.org/1999/xlink">
    <title>yoga</title>
    <g id="yoga" stroke="none" stroke-width="1" fill="none" fill-rule="evenodd">
        <g id="noun_yoga_730555" transform="translate(1.000000, 0.000000)" fill="#000000" fill-rule="nonzero">
            <path d="M4.33400515,9.32097871 C4.33400515,8.13164912 3.36946901,7.1673338 2.1799186,7.1673338 C0.990368187,7.1673338 0.0262736842,8.13164912 0.0262736842,9.32097871 C0.0262736842,10.5105291 0.990368187,11.4746236 2.1799186,11.4746236 C3.36946901,11.4746236 4.33400515,10.5105291 4.33400515,9.32097871 L4.33400515,9.32097871 Z" id="Path"></path>
            <path d="M5.25261099,8.18597053 C5.58516398,5.86958222 5.64655158,3.52294175 5.43699462,1.19264187 C5.39172678,0.692045848 5.76071485,0.249745965 6.26086924,0.204698947 C6.76102363,0.15965193 7.20332351,0.528860819 7.24859135,1.02879439 C7.4627855,3.40414129 7.41023064,5.79538713 7.09291415,8.15903064 C9.03678129,8.34893474 10.8644978,9.17303018 12.2936365,10.5034629 C14.6257029,12.6953095 16.4408327,15.3778152 17.6087429,18.3571013 C17.8240412,18.9053942 17.5535382,19.5241282 17.0054662,19.7389848 C16.4569525,19.9540622 15.8384393,19.6837801 15.6231411,19.1357081 C14.7054185,16.7948089 13.3425254,14.6535298 11.6099818,12.8308922 C9.88008795,15.587593 7.54934643,17.9185553 4.7924248,19.649774 C4.29381614,19.962895 3.63577637,19.8125174 3.32265544,19.313688 C3.0095345,18.8150793 3.15991205,18.1570395 3.6585207,17.8436978 C5.64147275,16.5982802 7.38351158,15.0066189 8.80227181,13.1437923 C8.09167719,12.6721235 7.26515275,12.4042704 6.41301333,12.3700435 C6.15399298,13.7232206 5.80774924,15.0582905 5.37693193,16.3668622 C4.79330807,16.836102 4.18318596,17.2706732 3.54899462,17.6688094 C2.95366737,18.0426554 2.77414175,18.8283284 3.14798784,19.4236557 C3.17779836,19.4711317 3.21047953,19.5163995 3.24647298,19.5594592 C3.21688327,19.5501848 3.18795602,19.5391439 3.15947041,19.5272196 C2.69840094,19.3278204 2.48641497,18.792335 2.68581427,18.3312655 C3.61457778,16.1835827 4.29028304,13.9354274 4.69968094,11.6316257 L5.25504,8.17095485" id="Path"></path>
        </g>
    </g>
</svg>